<svg id="svg" version="1.1" xmlns="http://www.w3.org/2000/svg" xmlns:xlink="http://www.w3.org/1999/xlink" width="400"
     height="288.46153846153845" viewBox="0, 0, 400,288.46153846153845">
    <g id="svgg">
        <path id="path0"
              d="M0.000 151.515 L 0.000 218.182 200.000 218.182 L 400.000 218.182 400.000 151.515 L 400.000 84.848 200.000 84.848 L 0.000 84.848 0.000 151.515 "
              stroke="none" fill="#fc0404" fill-rule="evenodd"></path>
        <path id="path1"
              d="M0.000 240.260 L 0.000 260.606 1.010 260.606 L 2.020 260.606 2.042 263.420 C 2.054 264.968,2.108 266.461,2.161 266.739 C 2.240 267.149,2.033 267.252,1.057 267.287 L -0.144 267.331 1.010 267.504 C 2.156 267.675,2.165 267.687,2.188 268.975 C 2.202 269.806,2.332 270.248,2.548 270.202 C 2.734 270.162,2.886 270.325,2.886 270.563 C 2.886 271.087,3.358 271.137,3.561 270.635 C 3.647 270.420,3.715 270.478,3.729 270.780 C 3.747 271.170,3.967 271.269,4.690 271.213 L 5.628 271.140 5.714 272.944 C 5.810 274.956,5.691 274.881,8.586 274.775 C 9.405 274.745,9.819 274.853,9.832 275.100 C 10.014 278.560,10.068 278.648,12.033 278.750 C 13.810 278.842,13.862 278.891,13.860 280.467 C 13.856 282.822,13.795 282.737,15.530 282.794 C 17.330 282.853,17.641 282.974,17.428 283.530 C 17.345 283.747,17.415 284.010,17.585 284.115 C 17.754 284.220,17.884 284.525,17.873 284.793 C 17.856 285.191,17.807 285.175,17.605 284.704 C 17.368 284.153,17.356 284.157,17.336 284.776 C 17.324 285.170,17.486 285.426,17.749 285.426 C 17.987 285.426,18.182 285.634,18.182 285.889 C 18.182 286.209,18.028 286.294,17.686 286.163 C 17.413 286.058,17.294 286.077,17.421 286.204 C 17.657 286.440,18.956 286.501,24.747 286.552 L 27.994 286.580 27.994 287.590 L 27.994 288.600 200.000 288.600 L 372.006 288.600 372.006 287.590 L 372.006 286.580 374.964 286.544 C 376.591 286.524,378.929 286.504,380.159 286.501 C 381.389 286.497,382.395 286.376,382.395 286.231 C 382.395 286.087,382.266 286.049,382.107 286.147 C 381.618 286.449,381.788 285.947,382.323 285.508 C 382.601 285.281,382.666 285.177,382.468 285.277 C 382.269 285.378,382.107 285.322,382.107 285.154 C 382.107 284.986,382.237 284.848,382.395 284.848 C 382.554 284.848,382.684 284.711,382.684 284.543 C 382.684 284.375,382.522 284.335,382.323 284.454 C 382.066 284.608,382.073 284.534,382.348 284.195 C 382.560 283.933,382.655 283.593,382.560 283.438 C 382.294 283.007,382.714 282.868,384.505 282.796 C 385.408 282.759,386.163 282.622,386.183 282.490 C 386.203 282.359,386.252 282.121,386.291 281.962 C 386.331 281.804,386.380 281.025,386.400 280.231 L 386.436 278.788 387.807 278.783 C 389.726 278.777,390.010 278.512,390.183 276.565 L 390.332 274.892 391.486 274.843 C 392.121 274.816,392.976 274.784,393.385 274.771 C 394.087 274.749,394.133 274.654,394.196 273.105 C 394.277 271.084,394.300 271.046,395.376 271.172 C 395.856 271.227,396.248 271.146,396.248 270.990 C 396.248 270.834,396.386 270.707,396.554 270.707 C 396.722 270.707,396.777 270.869,396.677 271.068 C 396.576 271.266,396.680 271.201,396.908 270.924 C 397.136 270.646,397.479 270.418,397.672 270.418 C 397.864 270.418,397.997 270.126,397.969 269.769 C 397.811 267.821,397.928 267.573,399.062 267.454 L 400.144 267.341 399.062 267.292 L 397.980 267.244 397.980 263.925 L 397.980 260.606 398.990 260.606 L 400.000 260.606 400.000 240.260 L 400.000 219.913 200.000 219.913 L 0.000 219.913 0.000 240.260 M378.716 287.590 C 378.720 288.225,378.779 288.451,378.848 288.092 C 378.917 287.733,378.914 287.213,378.842 286.937 C 378.770 286.662,378.713 286.955,378.716 287.590 "
              stroke="none" fill="#fbfb04" fill-rule="evenodd"></path>
        <path id="path2"
              d="M21.356 0.997 L 21.356 1.994 19.408 2.079 L 17.460 2.165 17.376 3.926 L 17.291 5.687 14.058 5.857 C 10.290 6.056,9.812 6.359,9.812 8.546 L 9.812 9.812 8.546 9.812 C 6.359 9.812,6.056 10.290,5.857 14.058 L 5.687 17.291 3.926 17.376 L 2.165 17.460 2.079 19.408 L 1.994 21.356 0.997 21.356 L 0.000 21.356 0.000 52.814 L 0.000 84.271 200.000 84.271 L 400.000 84.271 400.000 52.814 L 400.000 21.356 399.003 21.356 L 398.006 21.356 397.921 19.408 L 397.835 17.460 396.074 17.376 L 394.313 17.291 394.144 14.085 C 393.949 10.380,393.767 10.063,391.706 9.826 L 390.332 9.668 390.174 8.294 C 389.937 6.233,389.620 6.051,385.915 5.856 L 382.709 5.687 382.624 3.926 L 382.540 2.165 380.736 2.079 L 378.932 1.993 378.932 0.996 L 378.932 0.000 200.144 0.000 L 21.356 0.000 21.356 0.997 M393.958 276.046 C 393.915 277.459,393.624 278.180,393.021 278.372 C 392.708 278.471,392.518 278.617,392.597 278.696 C 393.369 279.468,394.653 276.850,394.137 275.559 C 394.053 275.351,393.973 275.570,393.958 276.046 M5.772 276.640 C 5.772 277.059,5.897 277.302,6.061 277.201 C 6.219 277.102,6.349 276.770,6.349 276.462 C 6.349 276.154,6.219 275.902,6.061 275.902 C 5.902 275.902,5.772 276.234,5.772 276.640 M6.204 277.924 C 5.835 278.521,8.899 279.509,9.441 278.967 C 9.539 278.868,9.265 278.788,8.831 278.788 C 8.011 278.788,6.913 278.325,6.602 277.848 C 6.494 277.683,6.334 277.714,6.204 277.924 M9.879 279.942 C 9.879 280.498,9.939 280.725,10.011 280.447 C 10.084 280.170,10.084 279.715,10.011 279.437 C 9.939 279.159,9.879 279.387,9.879 279.942 M390.255 279.942 C 390.255 280.498,390.314 280.725,390.387 280.447 C 390.459 280.170,390.459 279.715,390.387 279.437 C 390.314 279.159,390.255 279.387,390.255 279.942 M9.921 281.520 C 9.634 282.267,10.162 282.563,12.008 282.688 C 13.548 282.793,13.588 282.782,12.436 282.574 C 11.665 282.435,10.955 282.087,10.634 281.691 C 10.169 281.117,10.083 281.096,9.921 281.520 M389.592 281.751 C 389.330 282.094,388.604 282.439,387.861 282.573 C 386.630 282.795,386.641 282.799,388.145 282.680 C 389.817 282.547,390.301 282.283,390.143 281.592 C 390.064 281.248,389.951 281.281,389.592 281.751 "
              stroke="none" fill="#040404" fill-rule="evenodd"></path>
        <path id="path3"
              d="M0.000 84.560 C 0.000 84.752,66.859 84.848,200.000 84.848 C 333.141 84.848,400.000 84.752,400.000 84.560 C 400.000 84.368,333.141 84.271,200.000 84.271 C 66.859 84.271,0.000 84.368,0.000 84.560 M0.000 263.925 L 0.000 267.244 1.129 267.244 C 2.048 267.244,2.240 267.150,2.161 266.739 C 2.108 266.461,2.054 264.968,2.042 263.420 L 2.020 260.606 1.010 260.606 L 0.000 260.606 0.000 263.925 M397.980 263.925 L 397.980 267.244 398.990 267.244 L 400.000 267.244 400.000 263.925 L 400.000 260.606 398.990 260.606 L 397.980 260.606 397.980 263.925 M2.020 270.409 C 2.020 270.775,2.726 271.284,3.232 271.284 C 3.543 271.284,3.743 271.082,3.729 270.779 C 3.715 270.478,3.648 270.419,3.561 270.635 C 3.367 271.114,2.886 271.097,2.886 270.611 C 2.886 270.399,2.691 270.226,2.453 270.226 C 2.215 270.226,2.020 270.308,2.020 270.409 M397.114 270.698 C 397.114 270.852,396.919 270.903,396.681 270.811 C 396.443 270.720,396.248 270.761,396.248 270.902 C 396.248 271.043,396.580 271.186,396.986 271.219 C 397.391 271.253,397.650 271.163,397.561 271.018 C 397.472 270.874,397.562 270.691,397.762 270.610 C 397.980 270.522,397.924 270.455,397.619 270.441 C 397.341 270.429,397.114 270.544,397.114 270.698 M5.955 274.994 C 6.100 275.097,6.232 275.635,6.249 276.190 C 6.305 278.028,6.961 278.642,9.091 278.848 C 9.879 278.925,9.972 279.046,10.127 280.205 C 10.330 281.732,11.181 282.540,12.586 282.540 C 13.954 282.540,14.010 282.523,13.891 282.150 C 13.832 281.968,13.802 281.210,13.823 280.467 C 13.868 278.894,13.815 278.842,12.033 278.750 C 10.065 278.648,10.036 278.601,9.832 275.139 C 9.819 274.923,9.096 274.808,7.752 274.808 C 6.619 274.808,5.810 274.892,5.955 274.994 M390.369 274.951 C 390.269 275.051,390.188 275.751,390.188 276.507 C 390.188 278.304,389.694 278.788,387.858 278.788 L 386.436 278.788 386.414 280.159 C 386.403 280.913,386.342 281.798,386.280 282.126 C 386.174 282.683,386.262 282.710,387.612 282.537 C 389.373 282.311,389.845 281.876,390.128 280.222 C 390.339 278.984,390.384 278.939,391.622 278.728 C 393.273 278.446,393.711 277.973,393.935 276.227 L 394.118 274.797 392.334 274.783 C 391.353 274.776,390.469 274.851,390.369 274.951 M382.211 285.281 C 382.303 285.519,382.265 285.714,382.129 285.714 C 381.992 285.714,381.798 285.927,381.698 286.188 C 381.554 286.562,381.599 286.593,381.910 286.335 C 382.127 286.155,382.390 286.094,382.495 286.199 C 382.600 286.303,382.657 286.043,382.622 285.619 C 382.587 285.195,382.443 284.848,382.302 284.848 C 382.160 284.848,382.120 285.043,382.211 285.281 M17.316 285.697 C 17.316 286.065,17.749 286.306,18.692 286.462 C 19.263 286.557,19.365 286.517,19.061 286.317 C 18.831 286.165,18.539 286.105,18.412 286.183 C 18.285 286.262,18.182 286.123,18.182 285.876 C 18.182 285.628,17.987 285.426,17.749 285.426 C 17.511 285.426,17.316 285.548,17.316 285.697 M21.313 287.518 L 21.417 288.600 24.706 288.600 L 27.994 288.600 27.994 287.607 L 27.994 286.614 24.602 286.525 L 21.209 286.436 21.313 287.518 M374.849 286.518 L 372.006 286.600 372.006 287.600 L 372.006 288.600 375.294 288.600 L 378.583 288.600 378.691 287.469 C 378.784 286.496,378.721 286.344,378.245 286.387 C 377.941 286.414,376.412 286.473,374.849 286.518 "
              stroke="none" fill="#3c8404" fill-rule="evenodd"></path>
        <path id="path4" d="" stroke="none" fill="#1004004" fill-rule="evenodd"></path>
    </g>
</svg>