<svg xmlns="http://www.w3.org/2000/svg" width="25" height="18" viewBox="0 0 25 18">
    <g fill="none">
        <path fill="#00247D" d="M0 2.81v2.728h3.908L0 2.81zM3.239 18h5.789v-4.041L3.238 18zm12.733-4.04V18h5.788l-5.788-4.04zM0 12.462v2.728l3.91-2.728H0zM21.762 0h-5.79v4.041L21.762 0zM25 15.19v-2.728h-3.91L25 15.19zm0-9.652V2.81l-3.909 2.728H25zM9.028 0h-5.79l5.79 4.041V0z"/>
        <path fill="#CF1B2B" d="M17.46 12.461l6.744 4.709c.33-.339.566-.756.687-1.211l-5.01-3.498h-2.422zm-8.431 0H7.542L.798 17.17c.362.367.826.63 1.346.751l6.885-4.806v-.653zm6.944-6.922h1.487L24.204.83C23.836.46 23.369.198 22.859.08l-6.886 4.806v.653zm-8.431 0L.798.83C.47 1.17.232 1.586.11 2.041L5.12 5.54h2.422z"/>
        <path fill="#EEE" d="M25 11.077H14.583V18h1.39v-4.04L21.76 18h.462c.746 0 1.46-.3 1.98-.83l-6.744-4.708h2.422l5.01 3.497c.065-.233.11-.475.11-.728v-.04l-3.91-2.73H25v-1.384zm-25 0v1.385h3.91L0 15.19v.04c0 .756.305 1.44.797 1.94l6.744-4.708h1.487v.652L2.143 17.92c.204.048.415.08.635.08h.46l5.79-4.041V18h1.389v-6.923H0zm25-8.308c0-.725-.286-1.422-.797-1.938l-6.744 4.707h-1.487v-.652L22.858.08c-.208-.051-.422-.078-.636-.08h-.46l-5.79 4.041V0h-1.389v6.923H25V5.538h-3.909L25 2.81v-.04zM9.028 0v4.041L3.238 0h-.46c-.746 0-1.46.3-1.98.83L7.54 5.539H5.119L.11 2.042c-.069.236-.106.48-.109.727v.041l3.908 2.728H0v1.385h10.417V0h-1.39z"/>
        <path fill="#CF1B2B" d="M14.583 6.923L14.583 0 10.417 0 10.417 6.923 0 6.923 0 11.077 10.417 11.077 10.417 18 14.583 18 14.583 11.077 25 11.077 25 6.923z"/>
    </g>
</svg>
