<svg xmlns="http://www.w3.org/2000/svg" width="25" height="18" viewBox="0 0 25 18">
    <g fill="none">
        <path fill="#C60A1D" d="M25 15.23c0 1.53-1.244 2.77-2.778 2.77H2.778C1.244 18 0 16.76 0 15.23V2.77C0 1.24 1.244 0 2.778 0h19.444C23.756 0 25 1.24 25 2.77v12.46z"/>
        <path fill="#FFC400" d="M0 5.333L25 5.333 25 13.633 0 13.633z"/>
        <path fill="#EA596E" d="M6.25 8.806v2.083c0 1.15.933 2.083 2.083 2.083 1.15 0 2.084-.933 2.084-2.083V8.806H6.25z"/>
        <path fill="#F4A2B2" d="M8.333 8.111L10.417 8.111 10.417 10.194 8.333 10.194z"/>
        <path fill="#DD2E44" d="M6.25 8.111L8.333 8.111 8.333 10.194 6.25 10.194z"/>
        <ellipse cx="8.333" cy="7.069" fill="#EA596E" rx="2.083" ry="1.042"/>
        <ellipse cx="8.333" cy="6.549" fill="#FFAC33" rx="2.083" ry="1"/>
        <path fill="#99AAB5" d="M4.861 8.111h.695v4.861H4.86v-4.86zm6.25 0h.695v4.861h-.695v-4.86z"/>
        <path fill="#66757F" d="M4.167 12.278H6.25v.694H4.167v-.694zm6.25 0H12.5v.694h-2.083v-.694zM4.86 7.417h.695v.694H4.86v-.694zm6.25 0h.695v.694h-.695v-.694z"/>
    </g>
</svg>
