<svg xmlns="http://www.w3.org/2000/svg" width="28" height="28" viewBox="0 0 28 28">
    <g fill="none" fill-rule="evenodd">
        <path fill="#FFF" d="M14 24c5.523 0 10-4.477 10-10S19.523 4 14 4 4 8.477 4 14s4.477 10 10 10z"/>
        <path fill="#2B2B2B" d="M14 3c6.075 0 11 4.925 11 11s-4.925 11-11 11S3 20.075 3 14 7.925 3 14 3zm0 2c-4.97 0-9 4.03-9 9s4.03 9 9 9 9-4.03 9-9-4.03-9-9-9zm0 4c.552 0 1 .448 1 1v3h3c.552 0 1 .448 1 1s-.448 1-1 1h-3v3c0 .552-.448 1-1 1s-1-.448-1-1v-3h-3c-.552 0-1-.448-1-1s.448-1 1-1h3v-3c0-.552.448-1 1-1z"/>
    </g>
</svg>
